<svg xmlns="http://www.w3.org/2000/svg" width="1200" height="600" viewBox="0 0 1200 600" fill="none">
  <rect width="1200" height="600" fill="#eafaf0"/>
  <rect y="410" width="1200" height="190" fill="#7ac88f"/>
  <g stroke="#0f5e36" stroke-width="8" stroke-linecap="round">
    <line x1="240" y1="410" x2="240" y2="210"/>
    <line x1="600" y1="410" x2="600" y2="170"/>
    <line x1="940" y1="410" x2="940" y2="230"/>
  </g>
  <g fill="#157347">
    <circle cx="240" cy="210" r="14"/>
    <circle cx="600" cy="170" r="14"/>
    <circle cx="940" cy="230" r="14"/>
  </g>
  <g stroke="#157347" stroke-width="7">
    <line x1="240" y1="210" x2="165" y2="156"/>
    <line x1="240" y1="210" x2="315" y2="156"/>
    <line x1="240" y1="210" x2="240" y2="116"/>
    <line x1="600" y1="170" x2="520" y2="120"/>
    <line x1="600" y1="170" x2="680" y2="120"/>
    <line x1="600" y1="170" x2="600" y2="78"/>
    <line x1="940" y1="230" x2="870" y2="178"/>
    <line x1="940" y1="230" x2="1010" y2="178"/>
    <line x1="940" y1="230" x2="940" y2="142"/>
  </g>
  <text x="60" y="84" fill="#0f4f2d" font-size="52" font-family="Verdana">Nordwind Bremen</text>
</svg>
